<?xml version="1.0" encoding="UTF-8"?><svg xmlns="http://www.w3.org/2000/svg" xmlns:xlink="http://www.w3.org/1999/xlink" fill-opacity="1" color-rendering="auto" color-interpolation="auto" text-rendering="auto" stroke="black" stroke-linecap="square" width="1362" stroke-miterlimit="10" shape-rendering="auto" stroke-opacity="1" fill="black" stroke-dasharray="none" font-weight="normal" stroke-width="1" height="1208" font-family="'Dialog'" font-style="normal" stroke-linejoin="miter" font-size="12px" stroke-dashoffset="0" image-rendering="auto">
  <!--Generated by ySVG 2.6-->
  <defs id="genericDefs"/>
  <g>
    <defs id="defs1">
      <clipPath clipPathUnits="userSpaceOnUse" id="clipPath1">
        <path d="M0 0 L1362 0 L1362 1208 L0 1208 L0 0 Z"/>
      </clipPath>
      <clipPath clipPathUnits="userSpaceOnUse" id="clipPath2">
        <path d="M543 205 L1905 205 L1905 1413 L543 1413 L543 205 Z"/>
      </clipPath>
      <clipPath clipPathUnits="userSpaceOnUse" id="clipPath3">
        <path d="M888 993 L1096 993 L1096 1051 L888 1051 L888 993 Z"/>
      </clipPath>
      <clipPath clipPathUnits="userSpaceOnUse" id="clipPath4">
        <path d="M1225 993 L1388 993 L1388 1063 L1225 1063 L1225 993 Z"/>
      </clipPath>
      <clipPath clipPathUnits="userSpaceOnUse" id="clipPath5">
        <path d="M558 618 L808 618 L808 721 L558 721 L558 618 Z"/>
      </clipPath>
      <clipPath clipPathUnits="userSpaceOnUse" id="clipPath6">
        <path d="M652 920 L808 920 L808 965 L652 965 L652 920 Z"/>
      </clipPath>
      <clipPath clipPathUnits="userSpaceOnUse" id="clipPath7">
        <path d="M1030 1229 L1165 1229 L1165 1287 L1030 1287 L1030 1229 Z"/>
      </clipPath>
      <clipPath clipPathUnits="userSpaceOnUse" id="clipPath8">
        <path d="M871 387 L1183 387 L1183 518 L871 518 L871 387 Z"/>
      </clipPath>
      <clipPath clipPathUnits="userSpaceOnUse" id="clipPath9">
        <path d="M1659 648 L1890 648 L1890 763 L1659 763 L1659 648 Z"/>
      </clipPath>
      <clipPath clipPathUnits="userSpaceOnUse" id="clipPath10">
        <path d="M906 721 L1159 721 L1159 881 L906 881 L906 721 Z"/>
      </clipPath>
      <clipPath clipPathUnits="userSpaceOnUse" id="clipPath11">
        <path d="M873 220 L1180 220 L1180 290 L873 290 L873 220 Z"/>
      </clipPath>
      <clipPath clipPathUnits="userSpaceOnUse" id="clipPath12">
        <path d="M673 803 L808 803 L808 873 L673 873 L673 803 Z"/>
      </clipPath>
      <clipPath clipPathUnits="userSpaceOnUse" id="clipPath13">
        <path d="M774 1247 L970 1247 L970 1297 L774 1297 L774 1247 Z"/>
      </clipPath>
      <clipPath clipPathUnits="userSpaceOnUse" id="clipPath14">
        <path d="M1491 993 L1746 993 L1746 1082 L1491 1082 L1491 993 Z"/>
      </clipPath>
      <clipPath clipPathUnits="userSpaceOnUse" id="clipPath15">
        <path d="M1198 1333 L1333 1333 L1333 1398 L1198 1398 L1198 1333 Z"/>
      </clipPath>
      <clipPath clipPathUnits="userSpaceOnUse" id="clipPath16">
        <path d="M1045 553 L1352 553 L1352 622 L1045 622 L1045 553 Z"/>
      </clipPath>
      <clipPath clipPathUnits="userSpaceOnUse" id="clipPath17">
        <path d="M907 1136 L1075 1136 L1075 1201 L907 1201 L907 1136 Z"/>
      </clipPath>
      <clipPath clipPathUnits="userSpaceOnUse" id="clipPath18">
        <path d="M1042 1334 L1177 1334 L1177 1373 L1042 1373 L1042 1334 Z"/>
      </clipPath>
      <clipPath clipPathUnits="userSpaceOnUse" id="clipPath19">
        <path d="M876 1333 L1011 1333 L1011 1374 L876 1374 L876 1333 Z"/>
      </clipPath>
    </defs>
    <g fill="white" text-rendering="geometricPrecision" shape-rendering="geometricPrecision" transform="translate(-543,-205)" stroke="white">
      <rect x="543" width="1362" height="1208" y="205" clip-path="url(#clipPath2)" stroke="none"/>
    </g>
    <g id="y.node.0">
      <a target="_blank" xlink:type="simple" xlink:href="urn:uuid:B85CF0D3-1EA4-4bc2-BEC1-8187A49D5824" xlink:show="new">
        <g fill="rgb(255,255,199)" text-rendering="geometricPrecision" shape-rendering="geometricPrecision" transform="matrix(1,0,0,1,-543,-205)" stroke="rgb(255,255,199)">
          <rect x="888" width="208.5" height="58" y="993" stroke="none"/>
        </g>
        <g text-rendering="geometricPrecision" stroke-miterlimit="1.45" shape-rendering="geometricPrecision" transform="matrix(1,0,0,1,-543,-205)" stroke-linecap="butt">
          <rect fill="none" x="888" width="208.5" height="58" y="993"/>
          <text x="944.8652" xml:space="preserve" y="1009.6016" clip-path="url(#clipPath3)" font-family="sans-serif" stroke="none">&lt;&lt;Metaclass&gt;&gt;</text>
        </g>
        <g>
          <g font-size="13px" stroke-linecap="butt" transform="matrix(1,0,0,1,-543,-205)" text-rendering="geometricPrecision" font-family="sans-serif" shape-rendering="geometricPrecision" font-weight="bold" stroke-miterlimit="1.45">
            <text x="913.2693" xml:space="preserve" y="1033.7012" clip-path="url(#clipPath3)" stroke="none">Attribuutgegevenstype!</text>
          </g>
        </g>
      </a>
    </g>
    <g id="y.node.1">
      <a target="_blank" xlink:type="simple" xlink:href="urn:uuid:824B07CB-FC8C-4f57-8827-BD643CB3DA3D" xlink:show="new">
        <g fill="rgb(255,255,199)" text-rendering="geometricPrecision" shape-rendering="geometricPrecision" transform="matrix(1,0,0,1,-543,-205)" stroke="rgb(255,255,199)">
          <rect x="1225.5" width="163.5" height="70" y="993" stroke="none"/>
        </g>
        <g text-rendering="geometricPrecision" stroke-miterlimit="1.45" shape-rendering="geometricPrecision" transform="matrix(1,0,0,1,-543,-205)" stroke-linecap="butt">
          <rect fill="none" x="1225.5" width="163.5" height="70" y="993"/>
          <text x="1259.8652" xml:space="preserve" y="1009.6016" clip-path="url(#clipPath4)" font-family="sans-serif" stroke="none">&lt;&lt;Metaclass&gt;&gt;</text>
        </g>
        <g>
          <g font-size="13px" stroke-linecap="butt" transform="matrix(1,0,0,1,-543,-205)" text-rendering="geometricPrecision" font-family="sans-serif" shape-rendering="geometricPrecision" font-weight="bold" stroke-miterlimit="1.45">
            <text x="1192.6812" xml:space="preserve" y="1033.7012" clip-path="url(#clipPath4)" stroke="none">Compositie/genest gegevenstype!</text>
          </g>
        </g>
      </a>
    </g>
    <g id="y.node.2">
      <a target="_blank" xlink:type="simple" xlink:href="urn:uuid:A20B6FED-9D1A-4adb-8227-A722613AAFB7" xlink:show="new">
        <g fill="rgb(255,255,199)" text-rendering="geometricPrecision" shape-rendering="geometricPrecision" transform="matrix(1,0,0,1,-543,-205)" stroke="rgb(255,255,199)">
          <rect x="558" width="250.5" height="103" y="618" stroke="none"/>
        </g>
        <g text-rendering="geometricPrecision" stroke-miterlimit="1.45" shape-rendering="geometricPrecision" transform="matrix(1,0,0,1,-543,-205)" stroke-linecap="butt">
          <rect fill="none" x="558" width="250.5" height="103" y="618"/>
          <text x="635.8652" xml:space="preserve" y="634.6016" clip-path="url(#clipPath5)" font-family="sans-serif" stroke="none">&lt;&lt;Metaclass&gt;&gt;</text>
        </g>
        <g>
          <g font-size="13px" stroke-linecap="butt" transform="matrix(1,0,0,1,-543,-205)" text-rendering="geometricPrecision" font-family="sans-serif" shape-rendering="geometricPrecision" font-weight="bold" stroke-miterlimit="1.45">
            <text x="616.8408" xml:space="preserve" y="658.7012" clip-path="url(#clipPath5)" stroke="none">Gegevensgroeptype</text>
          </g>
        </g>
      </a>
    </g>
    <g id="y.node.3">
      <a target="_blank" xlink:type="simple" xlink:href="urn:uuid:B8194110-F0D6-4391-9D81-11EB1AD611A1" xlink:show="new">
        <g fill="rgb(255,255,199)" text-rendering="geometricPrecision" shape-rendering="geometricPrecision" transform="matrix(1,0,0,1,-543,-205)" stroke="rgb(255,255,199)">
          <rect x="652.5" width="156" height="45" y="920" stroke="none"/>
        </g>
        <g text-rendering="geometricPrecision" stroke-miterlimit="1.45" shape-rendering="geometricPrecision" transform="matrix(1,0,0,1,-543,-205)" stroke-linecap="butt">
          <rect fill="none" x="652.5" width="156" height="45" y="920"/>
          <text x="683.1152" xml:space="preserve" y="936.6016" clip-path="url(#clipPath6)" font-family="sans-serif" stroke="none">&lt;&lt;Metaclass&gt;&gt;</text>
        </g>
        <g>
          <g font-size="13px" stroke-linecap="butt" transform="matrix(1,0,0,1,-543,-205)" text-rendering="geometricPrecision" font-family="sans-serif" shape-rendering="geometricPrecision" font-weight="bold" stroke-miterlimit="1.45">
            <text x="689.3831" xml:space="preserve" y="960.7012" clip-path="url(#clipPath6)" stroke="none">Identificator</text>
          </g>
        </g>
      </a>
    </g>
    <g id="y.node.4">
      <a target="_blank" xlink:type="simple" xlink:href="urn:uuid:6E318C51-642F-4f4d-957B-77C5D42021E1" xlink:show="new">
        <g fill="rgb(255,255,199)" text-rendering="geometricPrecision" shape-rendering="geometricPrecision" transform="matrix(1,0,0,1,-543,-205)" stroke="rgb(255,255,199)">
          <rect x="1030.5" width="135" height="58" y="1229" stroke="none"/>
        </g>
        <g text-rendering="geometricPrecision" stroke-miterlimit="1.45" shape-rendering="geometricPrecision" transform="matrix(1,0,0,1,-543,-205)" stroke-linecap="butt">
          <rect fill="none" x="1030.5" width="135" height="58" y="1229"/>
          <text x="1050.6152" xml:space="preserve" y="1245.6016" clip-path="url(#clipPath7)" font-family="sans-serif" stroke="none">&lt;&lt;Metaclass&gt;&gt;</text>
        </g>
        <g>
          <g font-size="13px" stroke-linecap="butt" transform="matrix(1,0,0,1,-543,-205)" text-rendering="geometricPrecision" font-family="sans-serif" shape-rendering="geometricPrecision" font-weight="bold" stroke-miterlimit="1.45">
            <text x="1058.6731" xml:space="preserve" y="1269.7012" clip-path="url(#clipPath7)" stroke="none">Waardelijst!</text>
          </g>
        </g>
      </a>
    </g>
    <g id="y.node.5">
      <a target="_blank" xlink:type="simple" xlink:href="urn:uuid:D0282BA4-C2F8-4d8c-BF2D-01844E161EEC" xlink:show="new">
        <g fill="rgb(255,255,199)" text-rendering="geometricPrecision" shape-rendering="geometricPrecision" transform="matrix(1,0,0,1,-543,-205)" stroke="rgb(255,255,199)">
          <rect x="871.5" width="312" height="131" y="387" stroke="none"/>
        </g>
        <g text-rendering="geometricPrecision" stroke-miterlimit="1.45" shape-rendering="geometricPrecision" transform="matrix(1,0,0,1,-543,-205)" stroke-linecap="butt">
          <rect fill="none" x="871.5" width="312" height="131" y="387"/>
          <text x="980.1152" xml:space="preserve" y="403.6016" clip-path="url(#clipPath8)" font-family="sans-serif" stroke="none">&lt;&lt;Metaclass&gt;&gt;</text>
        </g>
        <g>
          <g font-size="13px" stroke-linecap="butt" transform="matrix(1,0,0,1,-543,-205)" text-rendering="geometricPrecision" font-family="sans-serif" shape-rendering="geometricPrecision" font-weight="bold" stroke-miterlimit="1.45">
            <text x="960.0752" xml:space="preserve" y="427.7012" clip-path="url(#clipPath8)" stroke="none">Gegevensobjecttype</text>
          </g>
        </g>
        <g text-rendering="geometricPrecision" shape-rendering="geometricPrecision" transform="matrix(1,0,0,1,-543,-205)">
          <line y2="435" fill="none" x1="872" clip-path="url(#clipPath8)" x2="1182" y1="435"/>
          <text stroke-linecap="butt" x="876.5" y="452.0449" clip-path="url(#clipPath8)" font-family="sans-serif" stroke="none" stroke-miterlimit="1.45" xml:space="preserve">is beschrijvend: Boolean</text>
          <text stroke-linecap="butt" x="876.5" y="466.1777" clip-path="url(#clipPath8)" font-family="sans-serif" stroke="none" stroke-miterlimit="1.45" xml:space="preserve">eenduidig: Boolean</text>
          <text stroke-linecap="butt" x="876.5" y="480.3105" clip-path="url(#clipPath8)" font-family="sans-serif" stroke="none" stroke-miterlimit="1.45" xml:space="preserve">strikt eenduidig gegevensobjecttype: Boolean</text>
          <line y2="487" fill="none" x1="872" clip-path="url(#clipPath8)" x2="1182" y1="487"/>
        </g>
      </a>
    </g>
    <g id="y.node.6">
      <a target="_blank" xlink:type="simple" xlink:href="urn:uuid:C11E0907-9B14-4123-9A26-4F54539FBFEB" xlink:show="new">
        <g fill="rgb(255,255,199)" text-rendering="geometricPrecision" shape-rendering="geometricPrecision" transform="matrix(1,0,0,1,-543,-205)" stroke="rgb(255,255,199)">
          <rect x="1659" width="231" height="115" y="648" stroke="none"/>
        </g>
        <g text-rendering="geometricPrecision" stroke-miterlimit="1.45" shape-rendering="geometricPrecision" transform="matrix(1,0,0,1,-543,-205)" stroke-linecap="butt">
          <rect fill="none" x="1659" width="231" height="115" y="648"/>
          <text x="1727.1152" xml:space="preserve" y="664.6016" clip-path="url(#clipPath9)" font-family="sans-serif" stroke="none">&lt;&lt;Metaclass&gt;&gt;</text>
        </g>
        <g>
          <g font-size="13px" stroke-linecap="butt" transform="matrix(1,0,0,1,-543,-205)" text-rendering="geometricPrecision" font-family="sans-serif" shape-rendering="geometricPrecision" font-weight="bold" stroke-miterlimit="1.45">
            <text x="1734.3447" xml:space="preserve" y="688.7012" clip-path="url(#clipPath9)" stroke="none">Rolinvulling</text>
          </g>
        </g>
        <g text-rendering="geometricPrecision" shape-rendering="geometricPrecision" transform="matrix(1,0,0,1,-543,-205)">
          <line y2="696" fill="none" x1="1660" clip-path="url(#clipPath9)" x2="1889" y1="696"/>
          <text stroke-linecap="butt" x="1664" y="713.0449" clip-path="url(#clipPath9)" font-family="sans-serif" stroke="none" stroke-miterlimit="1.45" xml:space="preserve">naam: CharacterString [0..1]</text>
          <text stroke-linecap="butt" x="1664" y="727.1777" clip-path="url(#clipPath9)" font-family="sans-serif" stroke="none" stroke-miterlimit="1.45" xml:space="preserve">identificatoronderdeel: Boolean</text>
          <text stroke-linecap="butt" x="1664" y="741.3105" clip-path="url(#clipPath9)" font-family="sans-serif" stroke="none" stroke-miterlimit="1.45" xml:space="preserve">cardinaliteit: CharacterString</text>
          <line y2="748" fill="none" x1="1660" clip-path="url(#clipPath9)" x2="1889" y1="748"/>
        </g>
      </a>
    </g>
    <g id="y.node.7">
      <a target="_blank" xlink:type="simple" xlink:href="urn:uuid:A73BCD29-D696-47b5-B247-1891B846CCD2" xlink:show="new">
        <g fill="rgb(255,255,199)" text-rendering="geometricPrecision" shape-rendering="geometricPrecision" transform="matrix(1,0,0,1,-543,-205)" stroke="rgb(255,255,199)">
          <rect x="906" width="253.5" height="160" y="721" stroke="none"/>
        </g>
        <g text-rendering="geometricPrecision" stroke-miterlimit="1.45" shape-rendering="geometricPrecision" transform="matrix(1,0,0,1,-543,-205)" stroke-linecap="butt">
          <rect fill="none" x="906" width="253.5" height="160" y="721"/>
          <text x="985.3652" xml:space="preserve" y="737.6016" clip-path="url(#clipPath10)" font-family="sans-serif" stroke="none">&lt;&lt;Metaclass&gt;&gt;</text>
        </g>
        <g>
          <g font-size="13px" stroke-linecap="butt" transform="matrix(1,0,0,1,-543,-205)" text-rendering="geometricPrecision" font-family="sans-serif" shape-rendering="geometricPrecision" font-weight="bold" stroke-miterlimit="1.45">
            <text x="985.8503" xml:space="preserve" y="761.7012" clip-path="url(#clipPath10)" stroke="none">Gegevenstype</text>
          </g>
        </g>
        <g text-rendering="geometricPrecision" shape-rendering="geometricPrecision" transform="matrix(1,0,0,1,-543,-205)">
          <line y2="769" fill="none" x1="907" clip-path="url(#clipPath10)" x2="1158" y1="769"/>
          <text stroke-linecap="butt" x="911" y="786.0449" clip-path="url(#clipPath10)" font-family="sans-serif" stroke="none" stroke-miterlimit="1.45" xml:space="preserve">samengesteld enkelvoudig: Boolean</text>
          <text stroke-linecap="butt" x="911" y="800.1777" clip-path="url(#clipPath10)" font-family="sans-serif" stroke="none" stroke-miterlimit="1.45" xml:space="preserve">is sleutelonderdeel?: Boolean</text>
          <text stroke-linecap="butt" x="911" y="814.3105" clip-path="url(#clipPath10)" font-family="sans-serif" stroke="none" stroke-miterlimit="1.45" xml:space="preserve">samengesteld meervoudig: Boolean</text>
          <text stroke-linecap="butt" x="911" y="828.4434" clip-path="url(#clipPath10)" font-family="sans-serif" stroke="none" stroke-miterlimit="1.45" xml:space="preserve">indirect gegevenstype: Boolean</text>
          <text stroke-linecap="butt" x="911" y="842.5762" clip-path="url(#clipPath10)" font-family="sans-serif" stroke="none" stroke-miterlimit="1.45" xml:space="preserve">direct gegevenstype: Boolean</text>
          <text stroke-linecap="butt" x="911" y="856.709" clip-path="url(#clipPath10)" font-family="sans-serif" stroke="none" stroke-miterlimit="1.45" xml:space="preserve">cardinaliteit: CharacterString</text>
          <line y2="864" fill="none" x1="907" clip-path="url(#clipPath10)" x2="1158" y1="864"/>
        </g>
      </a>
    </g>
    <g id="y.node.8">
      <a target="_blank" xlink:type="simple" xlink:href="urn:uuid:97409214-7B52-4a4e-B563-7A894919DE54" xlink:show="new">
        <g fill="rgb(255,255,199)" text-rendering="geometricPrecision" shape-rendering="geometricPrecision" transform="matrix(1,0,0,1,-543,-205)" stroke="rgb(255,255,199)">
          <rect x="873" width="307.5" height="70" y="220" stroke="none"/>
        </g>
        <g text-rendering="geometricPrecision" stroke-miterlimit="1.45" shape-rendering="geometricPrecision" transform="matrix(1,0,0,1,-543,-205)" stroke-linecap="butt">
          <rect fill="none" x="873" width="307.5" height="70" y="220"/>
          <text x="979.3652" xml:space="preserve" y="236.6016" clip-path="url(#clipPath11)" font-family="sans-serif" stroke="none">&lt;&lt;Metaclass&gt;&gt;</text>
        </g>
        <g>
          <g font-size="13px" stroke-linecap="butt" transform="matrix(1,0,0,1,-543,-205)" text-rendering="geometricPrecision" font-family="sans-serif" shape-rendering="geometricPrecision" font-weight="bold" stroke-miterlimit="1.45">
            <text x="996.6589" xml:space="preserve" y="260.7012" clip-path="url(#clipPath11)" stroke="none">Extensie!</text>
          </g>
        </g>
      </a>
    </g>
    <g id="y.node.9">
      <a target="_blank" xlink:type="simple" xlink:href="urn:uuid:164B52BC-D0BB-4a1c-AC05-D09540F737B8" xlink:show="new">
        <g fill="rgb(255,255,199)" text-rendering="geometricPrecision" shape-rendering="geometricPrecision" transform="matrix(1,0,0,1,-543,-205)" stroke="rgb(255,255,199)">
          <rect x="673.5" width="135" height="70" y="803" stroke="none"/>
        </g>
        <g text-rendering="geometricPrecision" stroke-miterlimit="1.45" shape-rendering="geometricPrecision" transform="matrix(1,0,0,1,-543,-205)" stroke-linecap="butt">
          <rect fill="none" x="673.5" width="135" height="70" y="803"/>
          <text x="693.6152" xml:space="preserve" y="819.6016" clip-path="url(#clipPath12)" font-family="sans-serif" stroke="none">&lt;&lt;Metaclass&gt;&gt;</text>
        </g>
        <g>
          <g font-size="13px" stroke-linecap="butt" transform="matrix(1,0,0,1,-543,-205)" text-rendering="geometricPrecision" font-family="sans-serif" shape-rendering="geometricPrecision" font-weight="bold" stroke-miterlimit="1.45">
            <text x="700.5718" xml:space="preserve" y="843.7012" clip-path="url(#clipPath12)" stroke="none">Logisch-ID?</text>
          </g>
        </g>
      </a>
    </g>
    <g id="y.node.10">
      <a target="_blank" xlink:type="simple" xlink:href="urn:uuid:9E58E202-57E3-4cfa-8BAD-4A149125484C" xlink:show="new">
        <g fill="rgb(255,255,199)" text-rendering="geometricPrecision" shape-rendering="geometricPrecision" transform="matrix(1,0,0,1,-543,-205)" stroke="rgb(255,255,199)">
          <rect x="774" width="196.5" height="50" y="1247" stroke="none"/>
        </g>
        <g text-rendering="geometricPrecision" stroke-miterlimit="1.45" shape-rendering="geometricPrecision" transform="matrix(1,0,0,1,-543,-205)" stroke-linecap="butt">
          <rect fill="none" x="774" width="196.5" height="50" y="1247"/>
          <text x="824.8652" xml:space="preserve" y="1263.6016" clip-path="url(#clipPath13)" font-family="sans-serif" stroke="none">&lt;&lt;Metaclass&gt;&gt;</text>
        </g>
        <g>
          <g font-size="13px" stroke-linecap="butt" transform="matrix(1,0,0,1,-543,-205)" text-rendering="geometricPrecision" font-family="sans-serif" shape-rendering="geometricPrecision" font-weight="bold" stroke-miterlimit="1.45">
            <text x="790.6001" xml:space="preserve" y="1287.7012" clip-path="url(#clipPath13)" stroke="none">Gestructureerd datatype</text>
          </g>
        </g>
      </a>
    </g>
    <g id="y.node.11">
      <a target="_blank" xlink:type="simple" xlink:href="urn:uuid:7ADA30AB-7A47-4301-B3DD-F2A94917D8C4" xlink:show="new">
        <g fill="rgb(255,255,199)" text-rendering="geometricPrecision" shape-rendering="geometricPrecision" transform="matrix(1,0,0,1,-543,-205)" stroke="rgb(255,255,199)">
          <rect x="1491" width="255" height="89" y="993" stroke="none"/>
        </g>
        <g text-rendering="geometricPrecision" stroke-miterlimit="1.45" shape-rendering="geometricPrecision" transform="matrix(1,0,0,1,-543,-205)" stroke-linecap="butt">
          <rect fill="none" x="1491" width="255" height="89" y="993"/>
          <text x="1571.1152" xml:space="preserve" y="1009.6016" clip-path="url(#clipPath14)" font-family="sans-serif" stroke="none">&lt;&lt;Metaclass&gt;&gt;</text>
        </g>
        <g>
          <g font-size="13px" stroke-linecap="butt" transform="matrix(1,0,0,1,-543,-205)" text-rendering="geometricPrecision" font-family="sans-serif" shape-rendering="geometricPrecision" font-weight="bold" stroke-miterlimit="1.45">
            <text x="1534.4189" xml:space="preserve" y="1033.7012" clip-path="url(#clipPath14)" stroke="none">Verwijzinggegevenstype!</text>
          </g>
        </g>
        <g text-rendering="geometricPrecision" shape-rendering="geometricPrecision" transform="matrix(1,0,0,1,-543,-205)">
          <line y2="1041" fill="none" x1="1492" clip-path="url(#clipPath14)" x2="1745" y1="1041"/>
          <text stroke-linecap="butt" x="1496" y="1058.0449" clip-path="url(#clipPath14)" font-family="sans-serif" stroke="none" stroke-miterlimit="1.45" xml:space="preserve">inverse naam: CharacterString</text>
          <text stroke-linecap="butt" x="1496" y="1072.1777" clip-path="url(#clipPath14)" font-family="sans-serif" stroke="none" stroke-miterlimit="1.45" xml:space="preserve">inverse cardinaliteit: CharacterString</text>
          <line y2="1079" fill="none" x1="1492" clip-path="url(#clipPath14)" x2="1745" y1="1079"/>
        </g>
      </a>
    </g>
    <g id="y.node.12">
      <a target="_blank" xlink:type="simple" xlink:href="urn:uuid:75374898-4AFB-4c0f-AE28-25599EAF59F3" xlink:show="new">
        <g fill="rgb(255,255,199)" text-rendering="geometricPrecision" shape-rendering="geometricPrecision" transform="matrix(1,0,0,1,-543,-205)" stroke="rgb(255,255,199)">
          <rect x="1198.5" width="135" height="65" y="1333" stroke="none"/>
        </g>
        <g text-rendering="geometricPrecision" stroke-miterlimit="1.45" shape-rendering="geometricPrecision" transform="matrix(1,0,0,1,-543,-205)" stroke-linecap="butt">
          <rect fill="none" x="1198.5" width="135" height="65" y="1333"/>
          <text x="1218.6152" xml:space="preserve" y="1349.6016" clip-path="url(#clipPath15)" font-family="sans-serif" stroke="none">&lt;&lt;Metaclass&gt;&gt;</text>
        </g>
        <g>
          <g font-size="13px" stroke-linecap="butt" transform="matrix(1,0,0,1,-543,-205)" text-rendering="geometricPrecision" font-family="sans-serif" shape-rendering="geometricPrecision" font-weight="bold" stroke-miterlimit="1.45">
            <text x="1216.8755" xml:space="preserve" y="1373.7012" clip-path="url(#clipPath15)" stroke="none">Referentielijst!</text>
          </g>
        </g>
      </a>
    </g>
    <g id="y.node.13">
      <a target="_blank" xlink:type="simple" xlink:href="urn:uuid:A80A4669-D70D-42cd-9E1D-856E1DFF20F6" xlink:show="new">
        <g fill="rgb(255,255,199)" text-rendering="geometricPrecision" shape-rendering="geometricPrecision" transform="matrix(1,0,0,1,-543,-205)" stroke="rgb(255,255,199)">
          <rect x="1045.5" width="307.5" height="69" y="553" stroke="none"/>
        </g>
        <g text-rendering="geometricPrecision" stroke-miterlimit="1.45" shape-rendering="geometricPrecision" transform="matrix(1,0,0,1,-543,-205)" stroke-linecap="butt">
          <rect fill="none" x="1045.5" width="307.5" height="69" y="553"/>
          <text x="1151.8652" xml:space="preserve" y="569.6016" clip-path="url(#clipPath16)" font-family="sans-serif" stroke="none">&lt;&lt;Metaclass&gt;&gt;</text>
        </g>
        <g>
          <g font-size="13px" stroke-linecap="butt" transform="matrix(1,0,0,1,-543,-205)" text-rendering="geometricPrecision" font-family="sans-serif" shape-rendering="geometricPrecision" font-weight="bold" stroke-miterlimit="1.45">
            <text x="1162.9858" xml:space="preserve" y="593.7012" clip-path="url(#clipPath16)" stroke="none">Objecttype</text>
          </g>
        </g>
      </a>
    </g>
    <g id="y.node.14">
      <a target="_blank" xlink:type="simple" xlink:href="urn:uuid:09E003D3-8AD7-474d-8291-F8C4C9C8AE90" xlink:show="new">
        <g fill="rgb(255,255,199)" text-rendering="geometricPrecision" shape-rendering="geometricPrecision" transform="matrix(1,0,0,1,-543,-205)" stroke="rgb(255,255,199)">
          <rect x="907.5" width="168" height="65" y="1136" stroke="none"/>
        </g>
        <g text-rendering="geometricPrecision" stroke-miterlimit="1.45" shape-rendering="geometricPrecision" transform="matrix(1,0,0,1,-543,-205)" stroke-linecap="butt">
          <rect fill="none" x="907.5" width="168" height="65" y="1136"/>
          <text x="944.1152" xml:space="preserve" y="1152.6016" clip-path="url(#clipPath17)" font-family="sans-serif" stroke="none">&lt;&lt;Metaclass&gt;&gt;</text>
        </g>
        <g>
          <g font-size="13px" stroke-linecap="butt" transform="matrix(1,0,0,1,-543,-205)" text-rendering="geometricPrecision" font-family="sans-serif" shape-rendering="geometricPrecision" font-weight="bold" stroke-miterlimit="1.45">
            <text x="961.5295" xml:space="preserve" y="1176.7012" clip-path="url(#clipPath17)" stroke="none">Datatype</text>
          </g>
        </g>
      </a>
    </g>
    <g id="y.node.15">
      <a target="_blank" xlink:type="simple" xlink:href="urn:uuid:EAA7F9B8-7A33-42fd-8CDE-0B576697598F" xlink:show="new">
        <g fill="rgb(255,255,199)" text-rendering="geometricPrecision" shape-rendering="geometricPrecision" transform="matrix(1,0,0,1,-543,-205)" stroke="rgb(255,255,199)">
          <rect x="1042.5" width="135" height="39" y="1334" stroke="none"/>
        </g>
        <g text-rendering="geometricPrecision" stroke-miterlimit="1.45" shape-rendering="geometricPrecision" transform="matrix(1,0,0,1,-543,-205)" stroke-linecap="butt">
          <rect fill="none" x="1042.5" width="135" height="39" y="1334"/>
          <text x="1062.6152" xml:space="preserve" y="1350.6016" clip-path="url(#clipPath18)" font-family="sans-serif" stroke="none">&lt;&lt;Metaclass&gt;&gt;</text>
        </g>
        <g>
          <g font-size="13px" stroke-linecap="butt" transform="matrix(1,0,0,1,-543,-205)" text-rendering="geometricPrecision" font-family="sans-serif" shape-rendering="geometricPrecision" font-weight="bold" stroke-miterlimit="1.45">
            <text x="1078.3633" xml:space="preserve" y="1374.7012" clip-path="url(#clipPath18)" stroke="none">Codelijst!</text>
          </g>
        </g>
      </a>
    </g>
    <g id="y.node.16">
      <a target="_blank" xlink:type="simple" xlink:href="urn:uuid:58BAE188-BCEB-4a00-BD16-6A49C237E078" xlink:show="new">
        <g fill="rgb(255,255,199)" text-rendering="geometricPrecision" shape-rendering="geometricPrecision" transform="matrix(1,0,0,1,-543,-205)" stroke="rgb(255,255,199)">
          <rect x="876" width="135" height="41" y="1333" stroke="none"/>
        </g>
        <g text-rendering="geometricPrecision" stroke-miterlimit="1.45" shape-rendering="geometricPrecision" transform="matrix(1,0,0,1,-543,-205)" stroke-linecap="butt">
          <rect fill="none" x="876" width="135" height="41" y="1333"/>
          <text x="896.1152" xml:space="preserve" y="1349.6016" clip-path="url(#clipPath19)" font-family="sans-serif" stroke="none">&lt;&lt;Metaclass&gt;&gt;</text>
        </g>
        <g>
          <g font-size="13px" stroke-linecap="butt" transform="matrix(1,0,0,1,-543,-205)" text-rendering="geometricPrecision" font-family="sans-serif" shape-rendering="geometricPrecision" font-weight="bold" stroke-miterlimit="1.45">
            <text x="903.5764" xml:space="preserve" y="1373.7012" clip-path="url(#clipPath19)" stroke="none">Enumeratie!</text>
          </g>
        </g>
      </a>
    </g>
    <g id="y.edge.2">
      <a target="_blank" xlink:type="simple" xlink:href="urn:uuid:3F41EC59-9BEB-407a-A813-BB37FD35E55D" xlink:show="new">
        <g text-rendering="geometricPrecision" stroke-miterlimit="1.45" shape-rendering="geometricPrecision" transform="matrix(1,0,0,1,-543,-205)" stroke-linecap="butt">
          <path fill="none" d="M1344.4894 985.9916 L1342.5 673 L808.5384 674.2013"/>
          <path fill="white" d="M1344.5338 992.9915 L1339.4895 986.0233 L1344.4449 978.9918 L1349.4893 985.9598 Z" stroke="none"/>
          <path fill="none" d="M1344.5338 992.9915 L1339.4895 986.0233 L1344.4449 978.9918 L1349.4893 985.9598 Z"/>
        </g>
        <g>
          <g text-rendering="geometricPrecision" stroke-miterlimit="1.45" shape-rendering="geometricPrecision" font-family="sans-serif" transform="matrix(1,0,0,1,-543,-205)" stroke-linecap="butt">
            <text x="1219.746" xml:space="preserve" y="830.7042" stroke="none">heeft als waardetype</text>
          </g>
        </g>
        <g>
          <g text-rendering="geometricPrecision" stroke-miterlimit="1.45" shape-rendering="geometricPrecision" font-family="sans-serif" transform="matrix(1,0,0,1,-543,-205)" stroke-linecap="butt">
            <text x="1182.4476" xml:space="preserve" y="678.0551" stroke="none">genest gegevensgroeptype</text>
          </g>
        </g>
        <g>
          <g text-rendering="geometricPrecision" stroke-miterlimit="1.45" shape-rendering="geometricPrecision" font-family="sans-serif" transform="matrix(1,0,0,1,-543,-205)" stroke-linecap="butt">
            <text x="815.5" xml:space="preserve" y="668.0986" stroke="none">1..1</text>
          </g>
        </g>
      </a>
    </g>
    <g id="y.edge.5">
      <a target="_blank" xlink:type="simple" xlink:href="urn:uuid:2AFCA08E-E9E6-4df3-9411-C5916D1B6F42" xlink:show="new">
        <g text-rendering="geometricPrecision" stroke-miterlimit="1.45" shape-rendering="geometricPrecision" transform="matrix(1,0,0,1,-543,-205)" stroke-linecap="butt">
          <path fill="none" d="M666 912.9736 L666 893 L604.5 893 L604.5 937 L652.4531 937"/>
          <path fill="white" d="M666 919.9736 L661 912.9736 L666 905.9736 L671 912.9736 Z" stroke="none"/>
          <path fill="none" d="M666 919.9736 L661 912.9736 L666 905.9736 L671 912.9736 Z"/>
        </g>
        <g>
          <g text-rendering="geometricPrecision" stroke-miterlimit="1.45" shape-rendering="geometricPrecision" font-family="sans-serif" transform="matrix(1,0,0,1,-543,-205)" stroke-linecap="butt">
            <text x="669.5" xml:space="preserve" y="897.5352" stroke="none">0..*</text>
          </g>
        </g>
      </a>
    </g>
    <g id="y.edge.16">
      <g text-rendering="geometricPrecision" stroke-miterlimit="1.45" shape-rendering="geometricPrecision" transform="matrix(1,0,0,1,-543,-205)" stroke-linecap="butt">
        <path fill="none" d="M923.5779 518.0079 L777.6426 609.9991"/>
        <path fill="white" d="M764.9532 617.9979 L781.688 614.5416 L775.289 604.3901 Z" stroke="none"/>
        <path fill="none" d="M764.9532 617.9979 L781.688 614.5416 L775.289 604.3901 Z"/>
      </g>
    </g>
    <g id="y.edge.1">
      <a target="_blank" xlink:type="simple" xlink:href="urn:uuid:0E5F1810-D18A-491c-AE3D-12DF8C046DA9" xlink:show="new">
        <g text-rendering="geometricPrecision" stroke-miterlimit="1.45" shape-rendering="geometricPrecision" transform="matrix(1,0,0,1,-543,-205)" stroke-linecap="butt">
          <path fill="none" d="M983.9578 525.0135 L983.2972 720.988"/>
          <path d="M983.9814 518.0136 L988.9578 525.0305 L983.9342 532.0135 L978.9578 524.9967 Z" stroke="none"/>
        </g>
        <g>
          <g text-rendering="geometricPrecision" stroke-miterlimit="1.45" shape-rendering="geometricPrecision" font-family="sans-serif" transform="matrix(1,0,0,1,-543,-205)" stroke-linecap="butt">
            <text x="987.1699" xml:space="preserve" y="624.0352" stroke="none">heeft gegevenstype</text>
          </g>
        </g>
        <g>
          <g text-rendering="geometricPrecision" stroke-miterlimit="1.45" shape-rendering="geometricPrecision" font-family="sans-serif" transform="matrix(1,0,0,1,-543,-205)" stroke-linecap="butt">
            <text x="898.265" xml:space="preserve" y="624.0352" stroke="none">«Relatiesoort»</text>
          </g>
        </g>
        <g>
          <g text-rendering="geometricPrecision" stroke-miterlimit="1.45" shape-rendering="geometricPrecision" font-family="sans-serif" transform="matrix(1,0,0,1,-543,-205)" stroke-linecap="butt">
            <text x="986.8752" xml:space="preserve" y="711.4688" stroke="none">gegevenstype</text>
          </g>
        </g>
        <g>
          <g text-rendering="geometricPrecision" stroke-miterlimit="1.45" shape-rendering="geometricPrecision" font-family="sans-serif" transform="matrix(1,0,0,1,-543,-205)" stroke-linecap="butt">
            <text x="958.8492" xml:space="preserve" y="711.4688" stroke="none">0..*</text>
          </g>
        </g>
      </a>
    </g>
    <g id="y.edge.11">
      <g text-rendering="geometricPrecision" stroke-miterlimit="1.45" shape-rendering="geometricPrecision" transform="matrix(1,0,0,1,-543,-205)" stroke-linecap="butt">
        <path fill="none" d="M1264.929 993.0023 L1141.0413 890.5524"/>
        <path fill="white" d="M1129.4818 880.9932 L1137.9883 895.8135 L1145.6356 886.5659 Z" stroke="none"/>
        <path fill="none" d="M1129.4818 880.9932 L1137.9883 895.8135 L1145.6356 886.5659 Z"/>
      </g>
    </g>
    <g id="y.edge.18">
      <g text-rendering="geometricPrecision" stroke-miterlimit="1.45" shape-rendering="geometricPrecision" transform="matrix(1,0,0,1,-543,-205)" stroke-linecap="butt">
        <path fill="none" d="M997.5646 992.9991 L1015.3828 895.7696"/>
        <path fill="white" d="M1018.0865 881.0153 L1009.3008 895.6717 L1021.1042 897.8347 Z" stroke="none"/>
        <path fill="none" d="M1018.0865 881.0153 L1009.3008 895.6717 L1021.1042 897.8347 Z"/>
      </g>
    </g>
    <g id="y.edge.0">
      <a target="_blank" xlink:type="simple" xlink:href="urn:uuid:21E44B5A-2A36-463e-B460-9C09252CDB1F" xlink:show="new">
        <g text-rendering="geometricPrecision" stroke-miterlimit="1.45" shape-rendering="geometricPrecision" transform="matrix(1,0,0,1,-543,-205)" stroke-linecap="butt">
          <path fill="none" d="M938.4053 380.0291 L939.4311 289.991"/>
          <path d="M938.3256 387.0287 L933.4056 379.9722 L938.485 373.0296 L943.405 380.0861 Z" stroke="none"/>
        </g>
        <g>
          <g text-rendering="geometricPrecision" stroke-miterlimit="1.45" shape-rendering="geometricPrecision" font-family="sans-serif" transform="matrix(1,0,0,1,-543,-205)" stroke-linecap="butt">
            <text x="852.822" xml:space="preserve" y="343.0352" stroke="none">heeft extensie</text>
          </g>
        </g>
        <g>
          <g text-rendering="geometricPrecision" stroke-miterlimit="1.45" shape-rendering="geometricPrecision" font-family="sans-serif" transform="matrix(1,0,0,1,-543,-205)" stroke-linecap="butt">
            <text x="861.8633" xml:space="preserve" y="377.4688" stroke="none">extensie van</text>
          </g>
        </g>
        <g>
          <g text-rendering="geometricPrecision" stroke-miterlimit="1.45" shape-rendering="geometricPrecision" font-family="sans-serif" transform="matrix(1,0,0,1,-543,-205)" stroke-linecap="butt">
            <text x="942.0896" xml:space="preserve" y="377.4688" stroke="none">0..*</text>
          </g>
        </g>
        <g>
          <g text-rendering="geometricPrecision" stroke-miterlimit="1.45" shape-rendering="geometricPrecision" font-family="sans-serif" transform="matrix(1,0,0,1,-543,-205)" stroke-linecap="butt">
            <text x="886.7299" xml:space="preserve" y="308.6016" stroke="none">extensie</text>
          </g>
        </g>
      </a>
    </g>
    <g id="y.edge.8">
      <a target="_blank" xlink:type="simple" xlink:href="urn:uuid:83EE6BB0-129E-453b-823B-31D84575C39A" xlink:show="new">
        <g text-rendering="geometricPrecision" stroke-miterlimit="1.45" shape-rendering="geometricPrecision" transform="matrix(1,0,0,1,-543,-205)" stroke-linecap="butt">
          <path fill="none" d="M1104.533 290.046 L1103.4287 386.9845"/>
        </g>
        <g>
          <g text-rendering="geometricPrecision" stroke-miterlimit="1.45" shape-rendering="geometricPrecision" font-family="sans-serif" transform="matrix(1,0,0,1,-543,-205)" stroke-linecap="butt">
            <text x="1107.5844" xml:space="preserve" y="343.0352" stroke="none">heeft extensiebasis</text>
          </g>
        </g>
        <g>
          <g text-rendering="geometricPrecision" stroke-miterlimit="1.45" shape-rendering="geometricPrecision" font-family="sans-serif" transform="matrix(1,0,0,1,-543,-205)" stroke-linecap="butt">
            <text x="1107.1921" xml:space="preserve" y="377.4688" stroke="none">extensiebasis</text>
          </g>
        </g>
      </a>
    </g>
    <g id="y.edge.4">
      <a target="_blank" xlink:type="simple" xlink:href="urn:uuid:5B6631F6-367E-41e3-AB2C-A48BA71CA94D" xlink:show="new">
        <g text-rendering="geometricPrecision" stroke-miterlimit="1.45" shape-rendering="geometricPrecision" transform="matrix(1,0,0,1,-543,-205)" stroke-linecap="butt">
          <path fill="none" d="M1708.8102 993.012 L1761.3572 763.0234"/>
        </g>
        <g>
          <g text-rendering="geometricPrecision" stroke-miterlimit="1.45" shape-rendering="geometricPrecision" font-family="sans-serif" transform="matrix(1,0,0,1,-543,-205)" stroke-linecap="butt">
            <text x="1659.0128" xml:space="preserve" y="882.5352" stroke="none">afgeleid van</text>
          </g>
        </g>
        <g>
          <g text-rendering="geometricPrecision" stroke-miterlimit="1.45" shape-rendering="geometricPrecision" font-family="sans-serif" transform="matrix(1,0,0,1,-543,-205)" stroke-linecap="butt">
            <text x="1684.6519" xml:space="preserve" y="781.6016" stroke="none">bron in CIM</text>
          </g>
        </g>
        <g>
          <g text-rendering="geometricPrecision" stroke-miterlimit="1.45" shape-rendering="geometricPrecision" font-family="sans-serif" transform="matrix(1,0,0,1,-543,-205)" stroke-linecap="butt">
            <text x="1763.7589" xml:space="preserve" y="781.6016" stroke="none">1..*</text>
          </g>
        </g>
      </a>
    </g>
    <g id="y.edge.6">
      <a target="_blank" xlink:type="simple" xlink:href="urn:uuid:C35DED7F-1B40-46c6-9C87-81B75AB64807" xlink:show="new">
        <g text-rendering="geometricPrecision" stroke-miterlimit="1.45" shape-rendering="geometricPrecision" transform="matrix(1,0,0,1,-543,-205)" stroke-linecap="butt">
          <path fill="none" d="M1567.5 992.9912 L1567.5 452 L1183.4827 453.0608"/>
        </g>
        <g>
          <g text-rendering="geometricPrecision" stroke-miterlimit="1.45" shape-rendering="geometricPrecision" font-family="sans-serif" transform="matrix(1,0,0,1,-543,-205)" stroke-linecap="butt">
            <text x="1274.6523" xml:space="preserve" y="720.002" stroke="none">heeft als waardetype een doelgegevensobjecttype</text>
          </g>
        </g>
        <g>
          <g text-rendering="geometricPrecision" stroke-miterlimit="1.45" shape-rendering="geometricPrecision" font-family="sans-serif" transform="matrix(1,0,0,1,-543,-205)" stroke-linecap="butt">
            <text x="1190.5" xml:space="preserve" y="446.6158" stroke="none">doelgegevensobjecttype</text>
          </g>
        </g>
        <g>
          <g text-rendering="geometricPrecision" stroke-miterlimit="1.45" shape-rendering="geometricPrecision" font-family="sans-serif" transform="matrix(1,0,0,1,-543,-205)" stroke-linecap="butt">
            <text x="1190.5" xml:space="preserve" y="468.1485" stroke="none">1..1</text>
          </g>
        </g>
      </a>
    </g>
    <g id="y.edge.13">
      <g text-rendering="geometricPrecision" stroke-miterlimit="1.45" shape-rendering="geometricPrecision" transform="matrix(1,0,0,1,-543,-205)" stroke-linecap="butt">
        <path fill="none" d="M1508.2786 992.9974 L1173.4067 857.791"/>
        <path fill="white" d="M1159.4977 852.1751 L1172.0876 863.729 L1176.5803 852.6017 Z" stroke="none"/>
        <path fill="none" d="M1159.4977 852.1751 L1172.0876 863.729 L1176.5803 852.6017 Z"/>
      </g>
    </g>
    <g id="y.edge.17">
      <g text-rendering="geometricPrecision" stroke-miterlimit="1.45" shape-rendering="geometricPrecision" transform="matrix(1,0,0,1,-543,-205)" stroke-linecap="butt">
        <path fill="none" d="M1215.1816 1332.9823 L1155.9797 1295.1001"/>
        <path fill="white" d="M1143.345 1287.0154 L1153.5881 1300.693 L1160.0559 1290.5852 Z" stroke="none"/>
        <path fill="none" d="M1143.345 1287.0154 L1153.5881 1300.693 L1160.0559 1290.5852 Z"/>
      </g>
    </g>
    <g id="y.edge.3">
      <a target="_blank" xlink:type="simple" xlink:href="urn:uuid:28275AAC-8C90-4e60-B2F0-DB18900C52A4" xlink:show="new">
        <g text-rendering="geometricPrecision" stroke-miterlimit="1.45" shape-rendering="geometricPrecision" transform="matrix(1,0,0,1,-543,-205)" stroke-linecap="butt">
          <path fill="none" d="M1129.4055 720.9885 L1132.0402 621.9702"/>
        </g>
        <g>
          <g text-rendering="geometricPrecision" stroke-miterlimit="1.45" shape-rendering="geometricPrecision" font-family="sans-serif" transform="matrix(1,0,0,1,-543,-205)" stroke-linecap="butt">
            <text x="1087.7578" xml:space="preserve" y="676.0352" stroke="none">betreft</text>
          </g>
        </g>
        <g>
          <g text-rendering="geometricPrecision" stroke-miterlimit="1.45" shape-rendering="geometricPrecision" font-family="sans-serif" transform="matrix(1,0,0,1,-543,-205)" stroke-linecap="butt">
            <text x="1040.5659" xml:space="preserve" y="640.6016" stroke="none">onderwerptype</text>
          </g>
        </g>
        <g>
          <g text-rendering="geometricPrecision" stroke-miterlimit="1.45" shape-rendering="geometricPrecision" font-family="sans-serif" transform="matrix(1,0,0,1,-543,-205)" stroke-linecap="butt">
            <text x="1135.4069" xml:space="preserve" y="640.6016" stroke="none">1..*</text>
          </g>
        </g>
      </a>
    </g>
    <g id="y.edge.7">
      <a target="_blank" xlink:type="simple" xlink:href="urn:uuid:BBFAB288-2D76-4ef5-8347-A3F8FE453B67" xlink:show="new">
        <g text-rendering="geometricPrecision" stroke-miterlimit="1.45" shape-rendering="geometricPrecision" transform="matrix(1,0,0,1,-543,-205)" stroke-linecap="butt">
          <path fill="none" d="M1118.8088 517.9893 L1118.2734 552.9669"/>
        </g>
        <g>
          <g text-rendering="geometricPrecision" stroke-miterlimit="1.45" shape-rendering="geometricPrecision" font-family="sans-serif" transform="matrix(1,0,0,1,-543,-205)" stroke-linecap="butt">
            <text x="1122.2323" xml:space="preserve" y="536.6016" stroke="none">heeft</text>
          </g>
        </g>
        <g>
          <g text-rendering="geometricPrecision" stroke-miterlimit="1.45" shape-rendering="geometricPrecision" font-family="sans-serif" transform="matrix(1,0,0,1,-543,-205)" stroke-linecap="butt">
            <text x="1168.0249" xml:space="preserve" y="539.1388" stroke="none">hoofdonderwerptype</text>
          </g>
        </g>
        <g>
          <g text-rendering="geometricPrecision" stroke-miterlimit="1.45" shape-rendering="geometricPrecision" font-family="sans-serif" transform="matrix(1,0,0,1,-543,-205)" stroke-linecap="butt">
            <text x="1092.0798" xml:space="preserve" y="543.4688" stroke="none">0..1</text>
          </g>
        </g>
      </a>
    </g>
    <g id="y.edge.9">
      <a target="_blank" xlink:type="simple" xlink:href="urn:uuid:12F23B10-0BD2-4fb5-9EA9-95800665856F" xlink:show="new">
        <g text-rendering="geometricPrecision" stroke-miterlimit="1.45" shape-rendering="geometricPrecision" transform="matrix(1,0,0,1,-543,-205)" stroke-linecap="butt">
          <path fill="none" d="M990.6624 1057.9796 L990.0916 1135.9767"/>
          <path fill="white" d="M990.7136 1050.9799 L995.6622 1058.0162 L990.6111 1064.9795 L985.6625 1057.9431 Z" stroke="none"/>
          <path fill="none" d="M990.7136 1050.9799 L995.6622 1058.0162 L990.6111 1064.9795 L985.6625 1057.9431 Z"/>
        </g>
        <g>
          <g text-rendering="geometricPrecision" stroke-miterlimit="1.45" shape-rendering="geometricPrecision" font-family="sans-serif" transform="matrix(1,0,0,1,-543,-205)" stroke-linecap="butt">
            <text x="993.9688" xml:space="preserve" y="1098.0352" stroke="none">heeft als waardetype</text>
          </g>
        </g>
        <g>
          <g text-rendering="geometricPrecision" stroke-miterlimit="1.45" shape-rendering="geometricPrecision" font-family="sans-serif" transform="matrix(1,0,0,1,-543,-205)" stroke-linecap="butt">
            <text x="993.7607" xml:space="preserve" y="1126.4688" stroke="none">waardetype</text>
          </g>
        </g>
      </a>
    </g>
    <g id="y.edge.10">
      <g text-rendering="geometricPrecision" stroke-miterlimit="1.45" shape-rendering="geometricPrecision" transform="matrix(1,0,0,1,-543,-205)" stroke-linecap="butt">
        <path fill="none" d="M1063.4967 1229.0043 L1041.6887 1210.6774"/>
        <path fill="white" d="M1030.2052 1201.027 L1038.5941 1215.9141 L1046.3145 1206.7273 Z" stroke="none"/>
        <path fill="none" d="M1030.2052 1201.027 L1038.5941 1215.9141 L1046.3145 1206.7273 Z"/>
      </g>
    </g>
    <g id="y.edge.12">
      <g text-rendering="geometricPrecision" stroke-miterlimit="1.45" shape-rendering="geometricPrecision" transform="matrix(1,0,0,1,-543,-205)" stroke-linecap="butt">
        <path fill="none" d="M901.0435 1247.0094 L942.7391 1210.8207"/>
        <path fill="white" d="M954.0674 1200.9886 L938.0511 1206.9448 L945.9167 1216.0074 Z" stroke="none"/>
        <path fill="none" d="M954.0674 1200.9886 L938.0511 1206.9448 L945.9167 1216.0074 Z"/>
      </g>
    </g>
    <g id="y.edge.14">
      <g text-rendering="geometricPrecision" stroke-miterlimit="1.45" shape-rendering="geometricPrecision" transform="matrix(1,0,0,1,-543,-205)" stroke-linecap="butt">
        <path fill="none" d="M1107.5449 1333.9617 L1103.51 1301.8508"/>
        <path fill="white" d="M1101.6399 1286.9679 L1097.6815 1303.5911 L1109.5879 1302.095 Z" stroke="none"/>
        <path fill="none" d="M1101.6399 1286.9679 L1097.6815 1303.5911 L1109.5879 1302.095 Z"/>
      </g>
    </g>
    <g id="y.edge.15">
      <g text-rendering="geometricPrecision" stroke-miterlimit="1.45" shape-rendering="geometricPrecision" transform="matrix(1,0,0,1,-543,-205)" stroke-linecap="butt">
        <path fill="none" d="M976.6556 1333.0057 L1038.3442 1294.8746"/>
        <path fill="white" d="M1051.1035 1286.9878 L1034.339 1290.2968 L1040.6484 1300.5042 Z" stroke="none"/>
        <path fill="none" d="M1051.1035 1286.9878 L1034.339 1290.2968 L1040.6484 1300.5042 Z"/>
      </g>
    </g>
  </g>
</svg>
